<?xml version="1.0" encoding="UTF-8" standalone="no"?>
<svg
   viewBox="0 0 512 512"
   version="1.1"
   id="svg1"
   sodipodi:docname="guitar.svg"
   inkscape:version="1.3.2 (091e20e, 2023-11-25, custom)"
   xmlns:inkscape="http://www.inkscape.org/namespaces/inkscape"
   xmlns:sodipodi="http://sodipodi.sourceforge.net/DTD/sodipodi-0.dtd"
   xmlns="http://www.w3.org/2000/svg"
   xmlns:svg="http://www.w3.org/2000/svg">
  <defs
     id="defs1" />
  <sodipodi:namedview
     id="namedview1"
     pagecolor="#ffffff"
     bordercolor="#000000"
     borderopacity="0.25"
     inkscape:showpageshadow="2"
     inkscape:pageopacity="0.0"
     inkscape:pagecheckerboard="0"
     inkscape:deskcolor="#d1d1d1"
     inkscape:zoom="0.98611908"
     inkscape:cx="-85.18241"
     inkscape:cy="251.99796"
     inkscape:window-width="1920"
     inkscape:window-height="1017"
     inkscape:window-x="-8"
     inkscape:window-y="-8"
     inkscape:window-maximized="1"
     inkscape:current-layer="g8" />
  <g
     id="g8">
    <path
       d="M502.7 39.02L473 9.37c-12.5-12.5-32.74-12.49-45.24 .0106l-46.24 46.37c-3.875 3.875-6.848 8.506-8.598 13.76l-12.19 36.51L284.5 182.3C272.4 173.5 259 166.5 244.4 163.1C211 155.4 177.4 162.3 154.5 185.1C145.3 194.5 138.3 206 134.3 218.6C128.3 237.1 111.1 251.3 92.14 253C68.52 255.4 46.39 264.5 29.52 281.5c-45.62 45.5-37.38 127.5 18.12 183c55.37 55.38 137.4 63.51 182.9 18c16.1-16.88 26.25-38.85 28.5-62.72c1.75-18.75 15.84-36.16 34.47-42.16c12.5-3.875 24.03-10.87 33.4-20.25c22.87-22.88 29.75-56.38 21.1-89.76c-3.375-14.63-10.39-27.99-19.14-40.11l76.25-76.26l36.53-12.17c5.125-1.75 9.894-4.715 13.77-8.59l46.36-46.29C515.2 71.72 515.2 51.52 502.7 39.02zM208 352c-26.5 0-48-21.5-48-48c0-26.5 21.5-48 48-48s47.1 21.5 47.1 48C256 330.5 234.5 352 208 352z"
       id="path1"
       style="fill:#fbe57f;fill-opacity:1;stroke:#000000;stroke-opacity:1;stroke-width:1.30000064;stroke-dasharray:none" />
    <rect
       style="fill:#000000;fill-opacity:1;stroke:#000000;stroke-width:0;stroke-dasharray:none;stroke-opacity:1"
       id="rect3"
       width="57.980251"
       height="4.2252812"
       x="339.21918"
       y="125.48534"
       transform="rotate(49.272827)" />
    <path
       style="fill:#6ab3dd;fill-opacity:1;stroke:#000000;stroke-width:1.4;stroke-dasharray:none;stroke-opacity:1"
       d="m 285.20896,187.3506 -59.57698,67.43607 14.95763,8.61965 11.40835,13.69003 3.29575,6.33798 68.95719,-56.53476 78.59092,-79.35147 -38.28139,-39.29545 z"
       id="path8" />
    <path
       style="fill:#6ab33a;fill-opacity:1;stroke:#000000;stroke-width:1.8;stroke-dasharray:none;stroke-opacity:1"
       d="m 365.70072,106.12492 39.79684,40.5139 40.51391,-13.62415 58.08188,-56.647755 3.5853,-11.114433 -0.71706,-12.190024 -6.81207,-11.114434 -36.57008,-34.0603614 -7.88766,-3.2267711 h -6.09501 -5.73648 l -6.81208,3.5853012 -13.26561,11.1144333 -12.54855,13.982675 -26.1727,24.738578 -6.45354,10.038844 z"
       id="path9" />
    <path
       style="fill:#6ab33a;fill-opacity:1;stroke:#000000;stroke-width:3.6;stroke-dasharray:none;stroke-opacity:1"
       d="M 498.35686,214.40101 Z"
       id="path10" />
  </g>
</svg>
