<?xml version="1.0" standalone="no"?>
<!DOCTYPE svg PUBLIC "-//W3C//DTD SVG 20010904//EN"
 "http://www.w3.org/TR/2001/REC-SVG-20010904/DTD/svg10.dtd">
<svg version="1.0" xmlns="http://www.w3.org/2000/svg"
 width="512.000000pt" height="512.000000pt" viewBox="0 0 512.000000 512.000000"
 preserveAspectRatio="xMidYMid meet">
<metadata>
Created by potrace 1.16, written by Peter Selinger 2001-2019
</metadata>
<g transform="translate(0.000000,512.000000) scale(0.100000,-0.100000)"
fill="#000000" stroke="none">
<path d="M2770 5102 c-98 -49 -107 -188 -15 -248 14 -9 82 -29 153 -45 214
-47 320 -82 512 -169 276 -125 521 -300 745 -531 331 -342 544 -741 644 -1210
26 -123 34 -142 67 -168 62 -49 146 -46 197 7 46 48 49 79 21 215 -106 523
-359 994 -742 1380 -387 392 -850 646 -1384 762 -140 30 -153 30 -198 7z"/>
<path d="M839 4801 c-114 -37 -173 -83 -408 -320 -230 -231 -292 -305 -341
-401 -94 -186 -110 -456 -44 -749 193 -860 913 -1880 1799 -2547 415 -313 945
-589 1359 -709 223 -64 476 -89 632 -61 228 39 312 93 597 382 257 261 276
285 322 377 68 139 66 279 -6 427 -41 83 -51 94 -413 456 -351 352 -375 374
-447 408 -140 67 -279 66 -418 -1 -67 -32 -98 -58 -288 -245 l-212 -210 -99
53 c-436 231 -1020 818 -1232 1239 l-39 78 192 193 c205 206 254 269 288 363
44 128 35 250 -28 379 -33 66 -67 103 -407 443 -387 387 -418 413 -536 448
-72 21 -200 20 -271 -3z m224 -291 c62 -29 709 -679 736 -740 52 -115 30 -153
-244 -425 -123 -121 -230 -234 -239 -252 -10 -19 -16 -57 -16 -94 0 -50 7 -77
41 -151 121 -269 338 -559 658 -878 261 -260 529 -462 799 -601 114 -59 128
-64 185 -63 38 0 75 8 97 19 19 10 136 118 260 240 124 122 240 230 259 240
50 25 138 17 188 -18 71 -49 679 -669 703 -716 38 -76 27 -154 -32 -231 -50
-65 -430 -437 -480 -470 -88 -58 -161 -75 -308 -74 -261 2 -555 90 -934 280
-632 317 -1167 754 -1625 1329 -388 486 -660 1002 -778 1475 -23 92 -26 127
-27 275 -1 184 7 229 61 325 35 62 466 495 523 525 56 30 116 31 173 5z"/>
<path d="M2722 4170 c-68 -42 -92 -132 -52 -197 28 -46 52 -58 173 -88 59 -14
137 -37 173 -51 436 -164 770 -548 869 -999 21 -94 35 -126 71 -154 81 -64
211 -17 229 83 15 76 -60 337 -147 510 -189 383 -521 684 -917 833 -91 34
-285 83 -329 83 -20 0 -52 -9 -70 -20z"/>
</g>
</svg>
