<?xml version="1.0"?><svg viewBox="0 0 64 64" xmlns="http://www.w3.org/2000/svg"><defs><style>.cls-1{fill:none;}.cls-1,.cls-3,.cls-4,.cls-5,.cls-6,.cls-7,.cls-8{stroke:#4c241d;stroke-linecap:round;stroke-linejoin:round;stroke-width:2px;}.cls-2{fill:#dbeffc;}.cls-3{fill:#ffe8dc;}.cls-4{fill:#6b4f5b;}.cls-5{fill:#9dc1e4;}.cls-6{fill:#ffce56;}.cls-7{fill:#ffded5;}.cls-8{fill:#e66353;}.cls-9{fill:#4c241d;}</style></defs><g id="deal"><line class="cls-1" x1="3" x2="57" y1="60" y2="60"/><circle class="cls-2" cx="32" cy="29" r="23"/><path class="cls-3" d="M10,18H27a2,2,0,0,1,2,2v0a2,2,0,0,1-2,2H10a0,0,0,0,1,0,0V18A0,0,0,0,1,10,18Z" transform="translate(39 40) rotate(180)"/><path class="cls-3" d="M32,18H50a2,2,0,0,1,2,2v0a2,2,0,0,1-2,2H32a0,0,0,0,1,0,0V18a0,0,0,0,1,0,0Z"/><path class="cls-4" d="M42,18H20v4h5.0429c-.0428.3995-.024,16-.024,16H36.9843s.018-15.6774-.0153-16H42Z"/><path class="cls-3" d="M29,16h4a0,0,0,0,1,0,0v4a2,2,0,0,1-2,2h0a2,2,0,0,1-2-2V16A0,0,0,0,1,29,16Z"/><polygon class="cls-5" points="36 38 35 60 27 60 26 38 36 38"/><line class="cls-1" x1="31" x2="31" y1="42" y2="60"/><path class="cls-6" d="M29.3234,5H37a0,0,0,0,1,0,0V5a4,4,0,0,1-4,4H27a0,0,0,0,1,0,0V7.3234A2.3234,2.3234,0,0,1,29.3234,5Z"/><path class="cls-7" d="M27,9h8a0,0,0,0,1,0,0v9a0,0,0,0,1,0,0H31.1888A4.1888,4.1888,0,0,1,27,13.8112V9A0,0,0,0,1,27,9Z"/><rect class="cls-8" height="13" width="34" x="14" y="22"/><path class="cls-9" d="M49,42a1,1,0,1,1-1-1A1,1,0,0,1,49,42Z"/><line class="cls-1" x1="47.5858" x2="50.4142" y1="8.5858" y2="11.4142"/><line class="cls-1" x1="50.4142" x2="47.5858" y1="8.5858" y2="11.4142"/><polyline class="cls-1" points="40 25 40 31 43 31"/><path class="cls-1" d="M20,25h2.7492A1.2508,1.2508,0,0,1,24,26.2508v3.4985A1.2508,1.2508,0,0,1,22.7492,31H20a0,0,0,0,1,0,0V25A0,0,0,0,1,20,25Z"/><polyline class="cls-1" points="30 25 27 25 27 31 30 31"/><line class="cls-1" x1="30" x2="27" y1="28" y2="28"/><polyline class="cls-1" points="32.634 31.074 33.634 25.074 35.634 25.074 36.634 31.074"/><line class="cls-1" x1="33.6343" x2="35.6343" y1="29.0736" y2="29.0736"/><circle class="cls-1" cx="17" cy="46" r="2"/></g></svg>