<?xml version="1.0" standalone="no"?>
<!DOCTYPE svg PUBLIC "-//W3C//DTD SVG 20010904//EN"
 "http://www.w3.org/TR/2001/REC-SVG-20010904/DTD/svg10.dtd">
<svg version="1.0" xmlns="http://www.w3.org/2000/svg"
 width="512.000000pt" height="512.000000pt" viewBox="0 0 512.000000 512.000000"
 preserveAspectRatio="xMidYMid meet">
<metadata>
Created by potrace 1.16, written by Peter Selinger 2001-2019
</metadata>
<g transform="translate(0.000000,512.000000) scale(0.100000,-0.100000)"
fill="#000000" stroke="none">
<path d="M1995 4335 l-170 -103 -420 -1 c-317 -1 -432 -5 -470 -15 -132 -35
-260 -138 -320 -259 -19 -38 -35 -76 -35 -83 0 -8 -4 -14 -10 -14 -5 0 -34 -9
-65 -21 -83 -31 -172 -118 -216 -211 l-34 -73 0 -1095 c0 -1230 -5 -1140 75
-1253 45 -63 141 -132 207 -150 24 -6 43 -16 43 -23 0 -6 16 -43 35 -82 61
-121 172 -215 305 -258 49 -16 106 -18 499 -22 l443 -3 169 101 c151 90 171
100 191 89 13 -7 87 -50 166 -95 79 -46 154 -84 168 -84 13 0 99 43 190 95 91
52 169 95 172 95 3 0 78 -43 167 -95 l162 -95 737 0 c640 0 741 2 773 15 50
21 72 42 94 90 18 38 19 110 19 1674 l0 1635 -21 44 c-13 26 -38 54 -62 70
l-41 27 -729 3 -729 3 -168 99 c-123 73 -177 100 -202 100 -22 0 -61 -17 -118
-51 -47 -28 -120 -72 -163 -96 l-78 -45 -164 96 c-123 72 -172 96 -197 95 -23
-1 -83 -31 -203 -104z m155 -1702 l0 -1658 -83 -47 c-45 -27 -101 -59 -124
-74 l-43 -25 0 1658 0 1658 123 72 c67 40 123 73 125 73 1 0 2 -746 2 -1657z
m348 -141 l2 -1660 -120 70 -120 70 0 1659 0 1658 118 -68 117 -69 3 -1660z
m362 139 l0 -1659 -120 -70 -120 -71 0 1659 0 1658 118 70 c64 39 118 71 120
71 1 1 2 -746 2 -1658z m243 1584 l117 -68 0 -1659 0 -1659 -42 26 c-24 14
-80 47 -125 73 l-83 47 0 1658 c0 912 3 1656 8 1654 4 -2 60 -34 125 -72z
m-1313 -340 l0 -245 -560 0 -560 0 0 83 c0 138 54 251 155 328 101 76 108 77
563 78 l402 1 0 -245z m2949 219 c17 -21 21 -41 21 -95 l0 -68 -514 -3 c-502
-3 -515 -4 -542 -24 -15 -11 -37 -33 -48 -48 -21 -27 -21 -29 -21 -1401 0
-1372 0 -1374 21 -1401 11 -15 33 -37 48 -48 27 -20 40 -21 542 -24 l514 -3 0
-68 c0 -54 -4 -74 -21 -95 l-20 -26 -695 0 -694 0 0 1665 0 1665 694 0 695 0
20 -26z m21 -394 l0 -120 -255 0 -255 0 0 35 c0 25 -8 44 -25 60 l-24 25 -231
0 -230 0 0 40 c0 27 7 47 20 60 19 19 33 20 510 20 l490 0 0 -120z m-4200
-1245 l0 -1285 -38 19 c-49 25 -108 90 -136 150 l-21 46 0 1070 0 1070 21 46
c27 58 86 124 133 149 20 11 37 19 39 20 1 0 2 -578 2 -1285z m3580 1060 l0
-75 -200 0 -200 0 0 75 0 75 200 0 200 0 0 -75z m-2350 -1060 l0 -1065 -560 0
-560 0 0 1065 0 1065 560 0 560 0 0 -1065z m2970 795 l0 -210 -255 0 -255 0 0
40 c0 30 -7 47 -25 65 l-24 25 -231 0 -230 0 0 80 0 80 230 0 231 0 24 25 c18
18 25 35 25 65 l0 40 255 0 255 0 0 -210z m-620 -265 l0 -75 -200 0 -200 0 0
75 0 75 200 0 200 0 0 -75z m620 -265 l0 -210 -255 0 -255 0 0 40 c0 30 -7 47
-25 65 l-24 25 -231 0 -230 0 0 80 0 80 230 0 231 0 24 25 c18 18 25 35 25 65
l0 40 255 0 255 0 0 -210z m-620 -265 l0 -75 -200 0 -200 0 0 75 0 75 200 0
200 0 0 -75z m620 -265 l0 -210 -255 0 -255 0 0 44 c0 36 -5 48 -26 65 -25 20
-39 21 -255 21 l-229 0 0 80 0 80 230 0 231 0 24 25 c18 18 25 35 25 65 l0 40
255 0 255 0 0 -210z m-620 -265 l0 -75 -200 0 -200 0 0 75 0 75 200 0 200 0 0
-75z m620 -265 l0 -210 -255 0 -255 0 0 40 c0 30 -7 47 -25 65 l-24 25 -231 0
-230 0 0 80 0 80 230 0 231 0 24 25 c18 18 25 35 25 65 l0 40 255 0 255 0 0
-210z m-620 -265 l0 -75 -200 0 -200 0 0 75 0 75 200 0 200 0 0 -75z m620
-185 l0 -120 -490 0 c-477 0 -491 1 -510 20 -13 13 -20 33 -20 60 l0 40 230 0
231 0 24 25 c17 16 25 35 25 60 l0 35 255 0 255 0 0 -120z m-2970 -180 l0
-250 -363 0 c-219 0 -387 4 -422 11 -87 16 -163 59 -227 128 -72 78 -99 145
-106 269 l-5 92 562 0 561 0 0 -250z"/>
</g>
</svg>
