<?xml version="1.0" standalone="no"?>
<!DOCTYPE svg PUBLIC "-//W3C//DTD SVG 20010904//EN"
 "http://www.w3.org/TR/2001/REC-SVG-20010904/DTD/svg10.dtd">
<svg version="1.0" xmlns="http://www.w3.org/2000/svg"
 width="512.000000pt" height="512.000000pt" viewBox="0 0 512.000000 512.000000"
 preserveAspectRatio="xMidYMid meet">
<metadata>
Created by potrace 1.16, written by Peter Selinger 2001-2019
</metadata>
<g transform="translate(0.000000,512.000000) scale(0.100000,-0.100000)"
fill="#000000" stroke="none">
<path d="M1278 4833 c-8 -10 -27 -39 -42 -65 -15 -27 -28 -48 -30 -48 -1 0
-47 10 -102 22 -134 29 -364 32 -441 5 -94 -33 -135 -108 -103 -191 26 -71
157 -168 312 -231 45 -19 82 -40 80 -45 -1 -6 -23 -47 -49 -91 l-46 -79 -76
-24 c-42 -13 -168 -52 -281 -86 -113 -35 -211 -67 -217 -73 -7 -5 -13 -25 -13
-43 0 -60 27 -63 172 -19 67 21 129 40 136 42 9 4 12 -275 12 -1374 l0 -1380
-161 -369 c-89 -202 -161 -379 -162 -391 0 -45 40 -66 82 -44 10 6 65 119 127
262 l109 252 5 -215 c5 -228 10 -248 54 -248 54 0 56 7 58 254 l3 229 113
-261 c63 -143 119 -265 125 -271 15 -15 60 -14 75 1 7 7 12 24 12 40 0 15 -74
197 -165 405 l-165 377 0 1386 0 1385 83 24 c154 45 146 40 217 162 35 61 69
113 75 115 7 3 57 -4 111 -15 261 -52 470 -28 524 61 42 69 19 140 -68 218
-55 49 -181 120 -274 155 l-47 17 30 58 c29 56 30 85 5 102 -20 14 -63 8 -78
-9z m-186 -202 c124 -28 259 -76 350 -123 83 -43 178 -120 178 -144 0 -31 -69
-48 -190 -48 -187 1 -395 52 -576 141 -92 45 -194 123 -194 148 0 16 30 35 75
46 49 13 263 1 357 -20z"/>
<path d="M3764 4842 c-25 -17 -24 -46 5 -102 l30 -58 -47 -17 c-93 -35 -219
-106 -274 -155 -61 -54 -88 -101 -88 -152 0 -141 214 -191 548 -127 56 11 107
17 112 14 5 -3 37 -54 71 -114 34 -60 71 -113 83 -118 12 -5 65 -22 119 -38
l97 -29 0 -1387 0 -1386 -165 -377 c-91 -208 -165 -390 -165 -405 0 -15 5 -32
12 -39 15 -15 60 -16 75 -1 6 6 62 128 125 271 l113 261 3 -229 c2 -247 4
-254 58 -254 44 0 49 20 54 248 l5 215 111 -254 c97 -223 114 -255 138 -264
18 -6 33 -6 44 1 39 25 28 63 -137 440 l-161 367 0 1380 c0 1099 3 1378 13
1374 6 -2 68 -21 135 -42 145 -44 172 -41 172 19 0 18 -6 38 -12 44 -7 5 -89
33 -183 61 -93 29 -220 68 -281 87 l-111 34 -47 80 c-25 43 -47 84 -48 90 -2
5 34 25 79 44 209 86 323 190 323 295 0 51 -33 91 -102 122 -48 21 -66 23
-203 23 -114 -1 -174 -6 -249 -23 -54 -11 -100 -21 -102 -21 -2 0 -15 21 -30
48 -15 26 -34 55 -42 65 -15 17 -58 23 -78 9z m635 -195 c24 -7 49 -20 55 -30
27 -46 -175 -172 -374 -235 -144 -46 -261 -65 -390 -66 -121 0 -190 17 -190
48 0 28 104 108 204 156 222 108 545 167 695 127z"/>
<path d="M1606 4102 c-27 -9 -57 -28 -67 -42 -23 -31 -159 -535 -159 -587 0
-76 59 -135 208 -205 129 -61 292 -99 432 -101 104 -2 120 1 165 23 59 29 75
57 106 178 l21 82 99 0 99 0 0 -277 0 -278 -118 -17 c-67 -9 -163 -31 -221
-50 l-103 -35 -64 43 c-129 84 -377 168 -580 195 -135 18 -288 8 -357 -24 -30
-14 -63 -36 -71 -50 -21 -31 -216 -758 -216 -804 0 -19 6 -46 14 -61 20 -39
101 -112 172 -155 64 -39 228 -108 304 -128 l45 -12 0 -156 c0 -92 6 -185 14
-226 34 -173 111 -357 208 -494 65 -91 201 -229 289 -292 41 -30 74 -56 74
-60 0 -3 -30 -59 -67 -124 -57 -101 -65 -120 -57 -143 8 -23 15 -27 49 -27
l40 0 70 122 70 121 35 -15 c175 -77 321 -107 520 -107 199 0 345 30 520 107
l35 15 70 -121 70 -122 40 0 c34 0 41 4 49 27 8 23 0 42 -57 143 -37 65 -67
121 -67 124 0 4 33 30 74 60 88 63 224 201 289 292 95 135 169 310 209 494 7
34 13 129 13 221 l0 161 45 12 c76 20 240 89 304 128 71 43 152 116 172 155 8
15 14 43 14 62 0 45 -195 772 -216 803 -8 14 -41 37 -72 51 -54 26 -65 27
-212 27 -126 0 -175 -5 -260 -24 -189 -42 -372 -112 -476 -183 l-51 -35 -103
35 c-59 19 -155 41 -222 50 l-118 17 0 278 0 277 99 0 99 0 21 -82 c31 -121
47 -149 106 -178 134 -66 495 1 694 130 72 47 111 100 111 153 0 53 -136 556
-159 587 -56 78 -308 80 -539 3 -118 -39 -225 -98 -276 -153 -57 -61 -58 -87
-16 -242 l29 -108 -219 0 -219 0 29 108 c42 155 41 181 -16 242 -138 148 -562
257 -748 192z m291 -107 c153 -29 311 -96 368 -155 l28 -29 -47 -178 c-26 -98
-49 -185 -52 -195 -4 -14 -13 -11 -57 18 -120 79 -310 134 -490 141 -88 4
-127 9 -124 17 2 6 26 94 53 195 39 149 52 185 68 191 34 14 168 11 253 -5z
m1575 6 c21 -8 30 -31 72 -193 27 -100 51 -188 53 -194 3 -8 -36 -13 -124 -17
-180 -7 -370 -62 -490 -141 -44 -29 -53 -32 -57 -18 -3 10 -26 97 -52 195
l-47 178 28 29 c55 57 214 125 361 154 80 16 222 20 256 7z m-1618 -545 c155
-46 322 -142 287 -165 -25 -16 -115 -22 -189 -11 -177 25 -318 75 -419 149
-74 54 -59 61 112 57 93 -3 140 -10 209 -30z m1772 21 c31 -30 -198 -146 -357
-181 -120 -26 -254 -29 -290 -5 -20 14 35 59 125 102 145 70 262 97 408 94 58
-1 110 -5 114 -10z m-2121 -572 c145 -30 397 -125 438 -164 5 -5 -13 -21 -40
-36 -128 -75 -283 -223 -371 -355 -31 -47 -58 -87 -59 -88 -1 -2 -43 6 -93 18
-131 30 -300 45 -383 33 -37 -5 -67 -7 -67 -4 0 3 34 136 77 294 82 308 78
300 148 318 47 13 262 3 350 -16z m2501 3 c29 -16 32 -25 107 -305 43 -158 77
-291 77 -294 0 -3 -30 -1 -67 4 -83 12 -252 -3 -383 -33 -50 -12 -92 -20 -93
-18 -1 1 -28 41 -59 89 -74 110 -208 243 -326 324 l-94 64 88 44 c129 65 256
103 464 141 60 11 255 0 286 -16z m-1260 -143 c688 -120 1112 -816 897 -1475
-52 -160 -140 -305 -262 -432 -296 -310 -721 -428 -1129 -313 -109 31 -287
119 -373 184 -423 321 -574 888 -363 1367 127 289 384 524 681 623 178 60 374
76 549 46z m-1429 -586 l99 -21 -41 -124 -40 -124 -30 6 c-51 10 -207 75 -275
114 -71 42 -140 103 -140 125 0 55 222 68 427 24z m2876 7 c20 -8 37 -22 37
-30 0 -30 -87 -98 -193 -152 -96 -47 -244 -103 -250 -93 -2 2 -21 59 -43 126
l-40 121 100 21 c56 11 117 22 136 25 67 8 216 -2 253 -18z"/>
<path d="M2450 2560 c-261 -33 -508 -181 -650 -390 -127 -187 -182 -403 -159
-626 23 -226 116 -413 286 -575 175 -167 383 -249 634 -249 264 0 467 85 654
274 159 160 244 338 264 553 21 227 -33 437 -159 623 -184 271 -542 432 -870
390z m308 -131 c288 -73 518 -304 593 -594 28 -109 28 -280 0 -386 -64 -246
-240 -454 -469 -556 -190 -84 -454 -84 -644 0 -229 102 -405 310 -469 556 -28
106 -28 277 0 386 45 173 156 344 292 447 208 158 452 210 697 147z"/>
</g>
</svg>
