<?xml version="1.0" standalone="no"?>
<!DOCTYPE svg PUBLIC "-//W3C//DTD SVG 20010904//EN"
 "http://www.w3.org/TR/2001/REC-SVG-20010904/DTD/svg10.dtd">
<svg version="1.0" xmlns="http://www.w3.org/2000/svg"
 width="512.000000pt" height="512.000000pt" viewBox="0 0 512.000000 512.000000"
 preserveAspectRatio="xMidYMid meet">
<metadata>
Created by potrace 1.16, written by Peter Selinger 2001-2019
</metadata>
<g transform="translate(0.000000,512.000000) scale(0.100000,-0.100000)"
fill="#000000" stroke="none">
<path d="M4339 4687 c-218 -111 -403 -208 -411 -215 -9 -7 -38 -73 -64 -147
l-49 -135 -489 -432 c-270 -238 -522 -461 -560 -495 -39 -35 -72 -57 -73 -50
-1 6 -32 242 -68 522 -42 322 -72 518 -81 533 -18 27 -64 30 -86 5 -8 -10
-140 -338 -293 -729 l-279 -711 -873 -437 c-929 -464 -915 -456 -881 -508 10
-15 196 -108 567 -283 l553 -260 253 -540 c139 -297 260 -550 269 -563 18 -23
50 -28 76 -12 8 5 211 401 450 881 l435 873 715 281 c393 154 721 284 728 288
21 14 15 75 -10 90 -14 9 -229 41 -543 82 -286 37 -521 68 -521 68 -1 1 217
250 484 552 l485 550 77 3 76 3 374 360 c206 198 379 368 384 379 16 35 -3 65
-97 158 -77 75 -100 92 -123 91 -17 0 -198 -86 -425 -202z m463 26 l47 -48
-337 -325 -338 -325 -51 3 c-48 4 -54 8 -121 75 l-71 72 40 110 40 110 367
187 c202 103 369 188 372 188 3 0 27 -21 52 -47z m-885 -705 l52 -53 -59 -65
-59 -65 -63 63 -63 62 60 55 c33 30 65 54 70 55 6 0 34 -24 62 -52z m-1388
-448 c29 -223 53 -417 54 -431 2 -21 -29 -53 -188 -195 -164 -146 -190 -174
-193 -201 -3 -30 11 -46 198 -230 111 -109 208 -202 216 -206 8 -5 23 -5 34
-2 10 3 96 93 189 200 122 138 176 192 188 189 10 -2 196 -26 413 -54 217 -28
408 -54 424 -58 24 -6 -56 -40 -530 -226 -308 -121 -587 -231 -622 -244 l-63
-24 -415 -831 -415 -830 -232 494 c-128 272 -237 502 -242 511 -8 14 -649 323
-969 467 l-59 27 824 410 c453 226 829 417 835 425 6 8 119 287 250 622 131
334 241 604 245 600 3 -5 30 -190 58 -413z m1233 164 c-4 -6 -24 -31 -46 -54
l-38 -42 -75 73 -74 74 52 48 53 47 68 -67 c41 -40 64 -71 60 -79z m-240 -111
l77 -78 -40 -44 -40 -45 -84 84 -85 84 37 38 c20 21 42 38 48 38 6 0 45 -35
87 -77z m-170 -170 l87 -88 -37 -42 -37 -43 -95 95 -94 95 34 35 c19 19 39 35
45 35 6 0 49 -39 97 -87z m-168 -162 l99 -99 -33 -41 c-19 -23 -36 -41 -39
-41 -3 0 -52 46 -108 102 l-103 102 37 38 c20 21 40 38 43 38 3 0 50 -45 104
-99z m-91 -318 l-37 -44 -115 115 -115 116 39 40 39 40 112 -111 113 -112 -36
-44z m-239 -12 l118 -119 -23 -31 c-12 -17 -25 -31 -28 -31 -3 0 -61 55 -128
122 l-123 122 27 28 c15 15 29 28 33 28 3 0 59 -53 124 -119z m-141 -149 c122
-122 127 -129 109 -145 -17 -16 -25 -10 -151 117 -119 120 -131 135 -115 145
11 6 21 11 24 11 3 0 63 -58 133 -128z"/>
<path d="M1748 2304 c-56 -58 -77 -90 -78 -113 0 -8 91 -106 202 -218 243
-244 230 -239 331 -134 43 44 67 77 67 92 0 16 -57 80 -202 226 -239 240 -233
237 -320 147z"/>
<path d="M1304 1854 c-90 -61 -88 -66 149 -302 228 -227 235 -231 295 -169 60
62 57 68 -171 295 -112 111 -210 202 -219 202 -8 0 -33 -12 -54 -26z"/>
</g>
</svg>
