<?xml version="1.0" standalone="no"?>
<!DOCTYPE svg PUBLIC "-//W3C//DTD SVG 20010904//EN"
 "http://www.w3.org/TR/2001/REC-SVG-20010904/DTD/svg10.dtd">
<svg version="1.0" xmlns="http://www.w3.org/2000/svg"
 width="512.000000pt" height="512.000000pt" viewBox="0 0 512.000000 512.000000"
 preserveAspectRatio="xMidYMid meet">
<metadata>
Created by potrace 1.16, written by Peter Selinger 2001-2019
</metadata>
<g transform="translate(0.000000,512.000000) scale(0.100000,-0.100000)"
fill="#000000" stroke="none">
<path d="M550 5064 c-19 -2 -78 -9 -130 -14 -161 -18 -318 -51 -345 -72 -32
-25 -41 -76 -21 -116 13 -25 28 -35 79 -50 129 -40 196 -47 422 -47 199 1 242
4 450 35 l230 35 413 0 414 0 19 24 c25 31 25 95 0 120 -25 25 -22 25 -446 57
-271 20 -445 28 -705 29 -190 2 -361 1 -380 -1z"/>
<path d="M4800 5055 c-136 -23 -314 -73 -327 -91 -7 -10 -13 -32 -13 -50 0
-54 28 -67 226 -103 99 -18 205 -39 237 -46 122 -28 197 28 197 147 0 142 -91
182 -320 143z"/>
<path d="M3745 4961 c-20 -19 -147 -53 -340 -91 -464 -92 -588 -125 -742 -195
-218 -100 -366 -254 -422 -439 -35 -115 -28 -239 50 -885 100 -833 128 -1173
136 -1646 l5 -340 -48 46 c-95 90 -227 162 -369 201 -108 29 -365 32 -465 4
-319 -89 -529 -320 -586 -647 -46 -266 40 -512 230 -655 123 -93 255 -144 420
-164 213 -25 449 31 620 149 51 35 146 132 193 197 48 66 118 215 138 293 9
35 21 139 26 230 4 91 13 227 18 301 23 315 13 785 -34 1549 -33 536 -36 481
28 513 90 46 156 73 347 143 324 118 423 163 557 251 322 213 427 515 377
1083 -7 80 -33 111 -92 111 -21 0 -42 -4 -47 -9z m-38 -378 c-7 -156 -24 -237
-72 -338 -80 -168 -193 -239 -565 -350 -240 -73 -353 -121 -469 -202 -35 -24
-64 -43 -66 -41 -1 2 -5 105 -8 230 l-5 226 28 60 c78 164 248 259 706 392
205 59 375 117 424 145 14 8 27 14 29 15 2 0 1 -62 -2 -137z m-1752 -3278
c163 -45 300 -152 344 -270 46 -119 22 -278 -59 -405 -48 -75 -159 -172 -243
-214 -253 -125 -564 -95 -732 70 -124 122 -166 322 -105 498 55 162 209 282
425 332 78 18 288 12 370 -11z"/>
<path d="M1405 3919 c-77 -5 -250 -18 -385 -30 -265 -24 -658 -31 -831 -15
-152 14 -189 -5 -189 -96 0 -55 17 -87 55 -105 12 -6 234 -11 550 -12 509 -1
754 -10 915 -31 163 -21 223 -9 260 53 29 46 27 133 -3 178 -47 71 -77 75
-372 58z"/>
<path d="M4660 3855 c-36 -8 -148 -18 -250 -21 -174 -7 -185 -8 -207 -30 -29
-29 -30 -82 -3 -116 17 -22 29 -26 103 -31 46 -3 155 -22 243 -43 126 -29 181
-37 265 -38 101 -1 107 0 154 29 120 74 130 185 22 242 -43 23 -236 28 -327 8z"/>
<path d="M80 2723 c-96 -50 -101 -215 -7 -274 30 -19 43 -20 202 -15 94 3 303
15 465 27 162 11 431 23 598 27 285 7 305 8 318 26 23 32 18 93 -8 110 -50 32
-431 67 -998 91 -190 8 -388 17 -440 21 -80 4 -100 2 -130 -13z"/>
<path d="M4845 2734 c-16 -2 -174 -13 -350 -24 -484 -31 -907 -42 -1145 -31
-186 8 -208 8 -235 -8 -41 -23 -57 -57 -51 -111 3 -34 11 -51 36 -73 l32 -29
172 9 c290 14 769 7 1246 -17 430 -22 457 -22 491 -6 92 44 106 191 24 266
-23 22 -36 25 -108 26 -45 1 -95 0 -112 -2z"/>
<path d="M4300 1589 c-80 -5 -298 -20 -485 -34 -187 -14 -396 -29 -464 -33
-112 -8 -126 -11 -143 -32 -23 -29 -23 -75 0 -98 24 -24 83 -29 562 -42 516
-14 840 -29 1000 -46 74 -8 154 -14 178 -14 89 0 142 55 142 148 0 74 -22 116
-74 142 -40 19 -59 20 -307 19 -145 -1 -329 -6 -409 -10z"/>
<path d="M355 1539 c-22 -6 -98 -24 -170 -41 -139 -32 -175 -53 -175 -103 0
-45 38 -72 135 -95 50 -12 119 -30 154 -41 177 -54 315 6 315 138 0 57 -17 90
-67 127 -32 24 -129 31 -192 15z"/>
<path d="M3350 436 c-167 -24 -320 -73 -367 -118 -34 -32 -31 -82 7 -118 71
-66 302 -80 770 -46 495 36 582 38 889 26 l295 -12 23 26 c30 35 30 86 0 121
-22 26 -27 27 -282 50 -143 13 -307 26 -365 30 -58 4 -195 16 -305 26 -264 27
-541 33 -665 15z"/>
<path d="M166 340 c-67 -20 -113 -100 -99 -170 3 -19 24 -52 48 -76 39 -41 45
-44 95 -44 32 0 91 12 148 31 53 16 140 37 195 45 116 17 154 34 164 72 11 41
5 65 -23 90 -22 19 -36 22 -117 22 -55 0 -127 8 -177 20 -89 20 -185 24 -234
10z"/>
</g>
</svg>
