<?xml version="1.0" standalone="no"?>
<!DOCTYPE svg PUBLIC "-//W3C//DTD SVG 20010904//EN"
 "http://www.w3.org/TR/2001/REC-SVG-20010904/DTD/svg10.dtd">
<svg version="1.0" xmlns="http://www.w3.org/2000/svg"
 width="512.000000pt" height="512.000000pt" viewBox="0 0 512.000000 512.000000"
 preserveAspectRatio="xMidYMid meet">
<metadata>
Created by potrace 1.16, written by Peter Selinger 2001-2019
</metadata>
<g transform="translate(0.000000,512.000000) scale(0.100000,-0.100000)"
fill="#000000" stroke="none">
<path d="M4275 4881 c-61 -16 -105 -41 -150 -82 l-46 -42 -57 55 c-31 31 -67
59 -80 63 -49 14 -102 -30 -102 -86 0 -12 27 -49 62 -85 l62 -65 -62 -62 -62
-62 -52 52 c-70 67 -90 77 -132 63 -34 -11 -56 -43 -56 -81 0 -12 27 -49 61
-85 l62 -64 -42 -46 c-66 -70 -85 -123 -86 -226 l0 -88 -500 -500 -501 -500
-59 20 c-290 102 -721 76 -1102 -66 -508 -189 -885 -505 -1067 -895 -244 -523
-152 -1121 230 -1503 252 -252 595 -381 964 -362 491 24 908 280 1210 741 78
120 193 363 244 516 128 386 145 765 46 1046 l-20 58 500 500 500 500 88 0
c103 1 156 20 226 86 l46 42 64 -62 c68 -65 94 -73 134 -45 57 40 48 92 -31
172 l-52 52 62 62 62 62 65 -62 c75 -73 101 -78 148 -32 43 43 34 78 -39 152
l-57 58 35 37 c48 51 64 80 83 143 20 68 20 132 0 200 -23 78 -49 112 -191
252 -148 146 -186 168 -303 174 -41 2 -88 0 -105 -5z m160 -170 c52 -24 259
-234 280 -283 20 -49 19 -94 -4 -143 -26 -55 -473 -499 -523 -520 -47 -19 -99
-19 -145 0 -48 20 -248 218 -273 270 -22 45 -26 108 -9 152 15 42 475 501 524
524 51 24 99 24 150 0z m-655 -936 l105 -105 -463 -463 -462 -462 -27 35 c-34
44 -96 106 -148 148 l-40 32 460 460 c253 253 462 460 465 460 3 0 52 -47 110
-105z m-1548 -815 c374 -36 609 -222 698 -555 32 -117 38 -343 15 -507 -70
-492 -341 -985 -684 -1243 -150 -114 -344 -202 -534 -242 -103 -22 -341 -24
-442 -4 -444 89 -770 409 -872 854 -24 104 -24 355 0 467 37 172 102 329 198
475 82 123 268 304 419 404 287 192 652 324 963 350 56 4 109 9 117 10 8 0 63
-4 122 -9z"/>
<path d="M1998 2634 c-157 -38 -291 -155 -357 -312 -42 -100 -45 -264 -6 -372
53 -149 183 -274 333 -320 81 -25 225 -27 303 -4 242 71 395 292 376 543 -25
324 -331 543 -649 465z m274 -176 c295 -136 283 -555 -19 -668 -232 -87 -484
87 -485 335 0 157 96 294 246 347 73 26 183 20 258 -14z"/>
<path d="M843 1540 c-33 -13 -56 -54 -49 -87 5 -20 102 -124 321 -343 295
-295 316 -314 350 -314 48 0 77 30 77 79 0 36 -13 51 -313 350 -196 195 -323
315 -339 318 -14 3 -35 1 -47 -3z"/>
</g>
</svg>
