<?xml version="1.0" standalone="no"?>
<!DOCTYPE svg PUBLIC "-//W3C//DTD SVG 20010904//EN"
 "http://www.w3.org/TR/2001/REC-SVG-20010904/DTD/svg10.dtd">
<svg version="1.0" xmlns="http://www.w3.org/2000/svg"
 width="512.000000pt" height="512.000000pt" viewBox="0 0 512.000000 512.000000"
 preserveAspectRatio="xMidYMid meet">
<metadata>
Created by potrace 1.16, written by Peter Selinger 2001-2019
</metadata>
<g transform="translate(0.000000,512.000000) scale(0.100000,-0.100000)"
fill="#000000" stroke="none">
<path d="M3615 5025 c-387 -73 -705 -308 -881 -651 -106 -208 -154 -478 -125
-706 l7 -58 -804 -1032 c-573 -736 -814 -1053 -838 -1101 -74 -155 -66 -366
22 -499 13 -21 24 -42 24 -47 0 -4 -51 -10 -113 -13 -89 -3 -122 -9 -157 -26
-71 -34 -116 -78 -147 -140 -26 -53 -28 -67 -32 -202 -4 -162 -13 -194 -64
-215 -18 -7 -79 -16 -137 -20 -134 -8 -188 -26 -245 -78 -54 -51 -63 -81 -36
-124 31 -49 72 -53 129 -12 44 31 51 33 171 41 146 9 207 32 267 101 62 72 78
119 74 222 -5 146 -2 181 15 215 22 43 61 57 196 68 77 7 132 17 163 30 l46
21 42 -24 c88 -50 165 -70 273 -69 113 1 177 20 274 78 34 21 449 396 1022
926 l964 890 111 0 c316 0 605 117 833 335 189 182 307 395 358 652 23 118 23
356 -1 468 -105 485 -445 835 -931 956 -109 28 -367 35 -480 14z m455 -174
c203 -53 367 -148 507 -294 186 -194 286 -421 300 -683 10 -189 -31 -372 -120
-539 l-43 -80 -69 -18 c-263 -66 -605 3 -875 178 -378 244 -620 652 -620 1045
0 125 14 190 47 217 89 72 295 160 442 188 104 20 329 13 431 -14z m-1054
-676 c124 -513 567 -960 1079 -1089 116 -29 306 -49 385 -41 l55 6 -45 -40
c-62 -56 -198 -135 -294 -172 -231 -90 -508 -93 -739 -9 -333 122 -571 387
-664 739 -34 127 -38 352 -9 475 32 137 76 241 150 354 l41 63 12 -108 c7 -59
20 -139 29 -178z m-216 -1020 c145 -216 384 -398 628 -478 40 -14 75 -27 77
-29 8 -8 -1773 -1670 -1832 -1711 -117 -79 -230 -86 -361 -21 -87 43 -149 100
-189 176 -25 48 -28 63 -28 153 0 92 3 105 30 158 17 32 369 497 784 1033
l755 976 41 -89 c23 -49 66 -125 95 -168z"/>
<path d="M2355 2331 c-24 -10 -248 -257 -258 -285 -12 -32 11 -83 43 -96 54
-22 79 -7 196 122 119 132 133 152 134 185 0 48 -69 93 -115 74z"/>
<path d="M946 4708 c-14 -20 -16 -93 -16 -595 0 -528 -3 -599 -24 -564 -3 5
-35 17 -71 26 -160 44 -334 -27 -410 -166 -26 -47 -29 -65 -30 -134 0 -97 27
-156 99 -223 74 -69 124 -86 241 -87 88 0 107 3 156 26 73 34 128 85 159 146
l25 48 3 658 c1 376 6 657 11 657 5 0 45 -26 88 -58 124 -93 196 -181 258
-316 45 -97 95 -121 150 -73 40 34 37 78 -11 178 -74 153 -192 279 -369 395
-162 105 -229 126 -259 82z m-117 -1308 c135 -68 108 -228 -45 -269 -153 -41
-287 117 -192 225 18 20 46 43 63 50 46 20 129 17 174 -6z"/>
<path d="M3934 2350 c-55 -22 -54 -8 -54 -607 l0 -552 -43 19 c-128 57 -312
20 -399 -79 -83 -95 -106 -234 -56 -341 34 -73 89 -127 167 -163 55 -26 77
-31 145 -31 151 -1 258 59 318 181 l33 68 3 642 3 643 57 -39 c133 -90 214
-183 286 -327 46 -93 57 -104 105 -104 71 0 97 65 60 151 -87 206 -251 373
-499 508 -78 42 -91 45 -126 31z m-144 -1305 c51 -27 90 -84 90 -135 0 -106
-118 -183 -233 -151 -50 15 -78 36 -106 82 -80 131 101 279 249 204z"/>
</g>
</svg>
